<svg id="Logo" xmlns="http://www.w3.org/2000/svg" xmlns:xlink="http://www.w3.org/1999/xlink" width="216" height="212" viewBox="0 0 216 212">
  <metadata><?xpacket begin="﻿" id="W5M0MpCehiHzreSzNTczkc9d"?>
<x:xmpmeta xmlns:x="adobe:ns:meta/" x:xmptk="Adobe XMP Core 5.6-c142 79.160924, 2017/07/13-01:06:39        ">
   <rdf:RDF xmlns:rdf="http://www.w3.org/1999/02/22-rdf-syntax-ns#">
      <rdf:Description rdf:about=""/>
   </rdf:RDF>
</x:xmpmeta>
                                                                                                    
                                                                                                    
                                                                                                    
                                                                                                    
                                                                                                    
                                                                                                    
                                                                                                    
                                                                                                    
                                                                                                    
                                                                                                    
                                                                                                    
                                                                                                    
                                                                                                    
                                                                                                    
                                                                                                    
                                                                                                    
                                                                                                    
                                                                                                    
                                                                                                    
                                                                                                    
                           
<?xpacket end="w"?></metadata>
<defs>
    <style>
      .cls-1 {
        filter: url(#filter);
      }

      .cls-2 {
        fill: red;
      }

      .cls-2, .cls-3, .cls-4 {
        fill-rule: evenodd;
      }

      .cls-3 {
        fill: #fff;
      }
    </style>
    <filter id="filter" filterUnits="userSpaceOnUse">
      <feFlood result="flood"/>
      <feComposite result="composite" operator="in" in2="SourceGraphic"/>
      <feBlend result="blend" in2="SourceGraphic"/>
    </filter>
  </defs>
  <g id="Grupo_1" data-name="Grupo 1" class="cls-1">
    <path id="Rectángulo_redondeado_1_copia" data-name="Rectángulo redondeado 1 copia" class="cls-2" d="M147,46c-2.164-10.129-9.054-27.23-13.761-34.217s-4.176-7.407-9.434-9.434A42,42,0,0,0,108.42-.1,41.9,41.9,0,0,0,93.058,2.35C87.8,4.376,88.332,4.8,83.625,11.783S72.164,35.871,70,46a60.245,60.245,0,0,1-6,1C44.472,49.169,29.427,51.6,9.5,57.06h0c-5.927,1.543-12.225,6-8.226,13.651a76.814,76.814,0,0,0,9.55,14.367c5.262,5.886,9.825,3.844,13.729,2.9C48.825,80.949,81.2,76.468,115.437,77.129c5.538,0.107-5.445-.363,7,0.166,26.126,1.11,50.271,5.056,69.4,10.581,3.909,0.939,8.477,2.977,13.746-2.9a76.663,76.663,0,0,0,9.561-14.34c4-7.637-2.3-12.086-8.237-13.626h0C187.788,51.795,175.738,49.194,157,47,155.512,47.011,146.918,46.148,147,46Z"/>
  </g>
  <path id="Forma_4" data-name="Forma 4" class="cls-3" d="M20.734,78.517L28.42,61.747l8.036,12.229L45.89,57.554l7.687,12.578,9.084-15.723,9.084,12.927L80.83,51.265,88.866,65.24,97.95,50.566l7.687,13.277,9.783-14.325,8.036,14.675,9.783-13.277,8.036,15.373,8.735-13.626L158.4,68.385l9.434-12.578,9.433,17.12,8.386-13.277,8.735,17.819,8.734-12.578-8.734,14.675L185.648,61.4l-8.386,13.626-9.433-16.771L158.4,70.831,150.01,56.506l-8.735,12.928-8.386-13.976-9.433,12.229L115.42,54.759l-9.783,13.626L97.95,55.807,88.866,68.735,80.83,56.156,71.745,70.481,63.011,57.554,53.577,72.927,45.89,60.349,36.457,76.421,28.42,63.494l-7.687,17.12L11.3,67.337Z"/>
  <path id="pAncHO_s" data-name="pAncHO’s" class="cls-4" d="M28.377,117.318c1.415-3.144,1.729-3.249,1.205-6.865-0.262-1.887-1.887-4.874-3.721-5.87l-1.467-.786a10.494,10.494,0,0,0-5.5-.943c-0.629,0-1.205.105-1.834,0.105-2.882,0-5.712-.053-8.595-0.053-0.157,0-.262-0.052-0.419-0.052a1.862,1.862,0,0,0-.576.21,1.285,1.285,0,0,0-.576,1.257L7,109.405c0,0.105-.052,8.595-0.052,8.7,0.262,7.18-.524,6.289-0.052,13.679a0.746,0.746,0,0,0,.943.838h5.817a0.918,0.918,0,0,0,.891-0.471,1.55,1.55,0,0,0,.1-0.682v-4.926c-0.1,0,.21-3.616.21-4.035a0.793,0.793,0,0,1,.577-0.629c0.681,0,1.363,0,2.044.052,0.419,0,.891.053,1.31,0.053C22.088,122.035,26.962,120.672,28.377,117.318Zm-13.888-7.546c0.157-.262,1.048-0.105,1.415-0.157l2.673-.1A2.836,2.836,0,0,1,21.3,111.4c0.786,1.625.157,2.673-1.048,3.826a3.048,3.048,0,0,1-.734.262,11.907,11.907,0,0,1-3.616.21c-0.367,0-.734-0.053-1.153-0.053A22.167,22.167,0,0,1,14.489,109.772ZM6,144.046a4.141,4.141,0,0,0,2.935.629c0.629-.053,1.31,0,1.939,0s1.258,0.1,1.939.1c0.524,0,1-.053,1.52-0.053,1.415,0,2.83.1,4.245,0,1.258-.052,2.516-0.367,3.773-0.471a5,5,0,0,0,2.1-.891l1.415-.734a17.254,17.254,0,0,0,2.253-1.572,26.225,26.225,0,0,0,2.306-2.516,18.018,18.018,0,0,0,2.568-4.192c0.419-.944.891-1.887,1.362-2.83l1.467-3.092a1.046,1.046,0,0,1,.786-0.682,12.259,12.259,0,0,1,2.411-.157,34.3,34.3,0,0,1,5.188.053,1.235,1.235,0,0,1,1.205.681c0.314,0.629.576,1.31,0.838,1.939l0.891,1.782a1.107,1.107,0,0,0,1.1.471h2.987c0.786,0,1.625-.052,2.411-0.1a0.951,0.951,0,0,0,1-1.258,6.335,6.335,0,0,0-.419-1.31l-0.524-1.049c-0.367-.733-0.681-1.467-1-2.2-0.1-.366-0.315-0.681-0.419-1.048-0.524-1.31-1-2.672-1.467-3.983-0.681-1.782-1.467-3.563-1.991-5.4a38.037,38.037,0,0,0-1.887-4.559,13.53,13.53,0,0,1-1-2.778,32.368,32.368,0,0,0-1.572-4.821,1.478,1.478,0,0,0-1.31-.943c-1.048-.053-2.149-0.158-3.2-0.262-3.564-.42-2.935.733-3.931,3.406-0.786,2.1-1.677,4.193-2.463,6.289L32.2,115.589a16.869,16.869,0,0,1-.629,1.729,76.031,76.031,0,0,0-2.882,7.18,31.083,31.083,0,0,1-1.363,3.3c-0.367.786-.891,1.467-1.31,2.253l-0.891,1.572a7.254,7.254,0,0,1-.577,1.1,14.608,14.608,0,0,1-1.31,1.834,6.108,6.108,0,0,1-1.782,1.52,8.382,8.382,0,0,1-3.616.681c-1.415-.052-2.777,0-4.193,0-2.1,0-4.245.053-6.341,0a1.892,1.892,0,0,0-1.991,1.625c-0.052.629-.1,1.258-0.1,1.887,0,1,.052,1.729.1,2.672A1.489,1.489,0,0,0,6,144.046Zm34.431-30.815h0.157l1.1,3.092,1,3.092a6.146,6.146,0,0,1,.367,1.048c0.1,0.419.052,0.524-.367,0.524-0.576.052-1.153,0.052-1.729,0.052h-2.2c-0.786-.052-0.891-0.209-0.629-0.943l1.31-3.144,0.21-.577Zm43.341-8.123a1.666,1.666,0,0,0-.576-1.52,2.066,2.066,0,0,0-1.1-.21c-1-.052-1.939-0.105-2.882-0.105-0.524,0-1.048-.052-1.572,0-1.1.158-1.625,0.42-1.73,1.625-0.1.943,0.1,1.887,0.052,2.777-0.1,2.464-.157,5.66-0.1,8.176,0,0.891,0,1.782.052,2.725a1.178,1.178,0,0,1-.21.053,5.373,5.373,0,0,1-.734-1.153,4.771,4.771,0,0,0-.472-0.891,35.187,35.187,0,0,1-2.358-4.036c-0.524-.943-1.048-1.939-1.625-2.83-0.943-1.519-1.887-2.987-2.882-4.454a16.055,16.055,0,0,0-1.415-1.258,2.358,2.358,0,0,0-.734-0.524c-1.625,0-5.817-.262-7.285.1-0.577.314-.577,1.52-0.524,2.253-0.21,4.769-.21,10.639-0.1,15.984v3.2a8.493,8.493,0,0,0,.052,1.153c0.052,0.419.052,4.088,0,4.717,0,2.306,2.62,1.729,4.245,1.729a11.739,11.739,0,0,0,2.725-.105,0.973,0.973,0,0,0,.838-1.153c0-.471-0.052-1.153-0.052-1.677v-2.62c-0.052-1.2,0-2.411,0-3.564-0.052-.891-0.052-1.781-0.052-2.62,0-.943.1-1.834,0.1-2.725a21,21,0,0,0,0-2.568,1.3,1.3,0,0,1,.052-0.419l1.467,2.358c1.1,1.834,2.149,3.721,3.2,5.608,1.415,2.41,2.62,4.873,3.983,7.232a3.515,3.515,0,0,0,1.258,1.624,4.535,4.535,0,0,0,3.092.577c1.048-.157,2.149.105,3.249,0.052a10.177,10.177,0,0,0,1.258-.052,0.556,0.556,0,0,0,.629-0.629c0.052-.629.1-1.31,0.1-1.939,0-.734-0.052-1.834-0.052-2.62,0-1,.1-1.992.1-2.988-0.052-2.306,0-4.664,0-6.97C83.773,113.493,84.087,108.986,83.773,105.108Zm27.148,24.736a1.052,1.052,0,0,0,.052-0.891,6.665,6.665,0,0,0-1.048-1.887c-0.681-.786-1.31-1.677-2.044-2.463a0.984,0.984,0,0,0-1.572-.157,5.562,5.562,0,0,1-2.2.786l-1.677.105a5.072,5.072,0,0,1-2.935-.472,6.826,6.826,0,0,1-3.2-2.778,9.01,9.01,0,0,1-1-2.306,8.217,8.217,0,0,1,1.205-6.708,6.912,6.912,0,0,1,.786-0.943,6.3,6.3,0,0,1,1.992-1.52,9.485,9.485,0,0,1,3.2-.314,5.4,5.4,0,0,1,2.411.524c0.786,0.367,1.52.681,2.253,1.1a1.26,1.26,0,0,0,1.468-.157,4.441,4.441,0,0,0,.838-0.891c0.524-.681.944-1.362,1.468-1.991a2.318,2.318,0,0,0-.524-3.564,10.925,10.925,0,0,0-2.516-1.153c-1.258-.367-2.568-0.576-3.878-0.891a5.961,5.961,0,0,0-2.358,0c-0.734.158-1.52,0.21-2.254,0.315a10.479,10.479,0,0,0-2.2.576,14.551,14.551,0,0,0-2.516,1.363,31.425,31.425,0,0,0-3.249,2.515,9.9,9.9,0,0,0-2.62,3.407A17.2,17.2,0,0,0,87.18,117.9a7.826,7.826,0,0,0-.1,1.1c0.1,0.786.262,1.52,0.419,2.306a16.557,16.557,0,0,0,1.939,4.4,13.367,13.367,0,0,0,3.406,3.879,11.364,11.364,0,0,0,5.136,2.568,34.624,34.624,0,0,0,5.346.838,5.017,5.017,0,0,0,1.153-.157c1.519-.419,3.039-0.891,4.507-1.415A3.228,3.228,0,0,0,110.921,129.844Zm27.776,2.882a1.254,1.254,0,0,0,.786-0.1,0.282,0.282,0,0,1,.21-0.209c0.262,0,.262-0.158.314-0.367a7.307,7.307,0,0,0,.1-2.149c0.053-1.467-.209-2.987-0.209-4.507,0-1.2,0-2.411-.053-3.616-0.157-3.616-.629-11.425.157-14.936a2.783,2.783,0,0,1,.42-0.891l0.471-.891a9.842,9.842,0,0,1,2.516-3.511,5.211,5.211,0,0,1,.786-0.734,5.909,5.909,0,0,1,1.1-.786c1.153-.419,2.149-0.891,3.3-1.258a1.877,1.877,0,0,0,1.31-1.992,9.871,9.871,0,0,1-.052-3.04A1.679,1.679,0,0,0,149.807,93c-0.052-.524,0-1-0.052-1.52-0.1-.472-0.157-0.524-0.681-0.577a8.6,8.6,0,0,0-2.306.21,10.442,10.442,0,0,0-1.834.472,42.419,42.419,0,0,0-4.141,1.939,16.652,16.652,0,0,0-3.878,2.987,21.485,21.485,0,0,0-4.507,7.284,10.909,10.909,0,0,0-.576,3.878v1.835h0.052l-0.157,3.93a2.249,2.249,0,0,1-.314,1.258,0.551,0.551,0,0,1-.472.262l-2.149.105c-0.471,0-.891.052-1.362,0.052a14.243,14.243,0,0,1-3.669-.157c-0.681-.1-0.681-0.157-0.891-0.838a1.288,1.288,0,0,1,.053-0.629c0.052-.682.105-1.415,0.105-2.1a10.286,10.286,0,0,0-.105-1.31c0-.891.052-1.729,0.052-2.568a12.232,12.232,0,0,0-.314-2.777,1.389,1.389,0,0,0-.786-1,4.141,4.141,0,0,0-1.94-.367l-2.043.105c-0.786,0-1.311,0-2.044.052a1.009,1.009,0,0,0-1.153,1,23.646,23.646,0,0,0-.1,2.725c0,0.682.21,1.31,0.21,1.992-0.053,1.257,0,2.515-.158,3.773-0.1,1.1.053,2.253,0.053,3.354,0,2.411,0,4.821.052,7.18l0.157,6.184v1.677a1.065,1.065,0,0,0,1.153,1.205,5.722,5.722,0,0,1,.944,0c1.1,0,2.2.053,3.3,0.053a11.282,11.282,0,0,0,1.311-.053,1.452,1.452,0,0,0,1.1-1.258c0-.786,0-1.572-0.052-2.358-0.053-1.2-.158-2.358-0.158-3.511a6.5,6.5,0,0,1,.315-2.463,0.676,0.676,0,0,1,.681-0.472c0.629,0,1.258,0,1.887.052a23.281,23.281,0,0,0,3.826-.052l1.677-.105a1.133,1.133,0,0,1,1.257,1.258,6.9,6.9,0,0,0,.105,1.467,13.293,13.293,0,0,0,.053,2.044,1.035,1.035,0,0,1-.053.367c-0.052,1.363.1,2.987,0.1,4.35a0.835,0.835,0,0,0,.629.786C135.186,133.04,136.549,132.516,138.7,132.726Zm33.751-21.539a15.356,15.356,0,0,0-8.07-7.652,12.266,12.266,0,0,0-3.092-.838,12.81,12.81,0,0,0-5.084.262c-0.943.262-1.939,0.472-2.882,0.786-3.512,1.1-5.241,3.249-7.39,6.079a10.482,10.482,0,0,0-1.834,4.14,22.217,22.217,0,0,0-.314,6.446,8.172,8.172,0,0,0,.262,1.939,9.891,9.891,0,0,0,1.2,2.883c0.472,0.629,1,1.2,1.415,1.886a7.811,7.811,0,0,0,3.878,3.355c0.891,0.419,1.834.786,2.725,1.1,5.817,1.572,8.49,1.625,14.045-1.31a12.212,12.212,0,0,0,1.625-1.258,17.047,17.047,0,0,0,4.717-8.8A14.456,14.456,0,0,0,172.448,111.187ZM163.067,123.5a4.188,4.188,0,0,1-1.886.891,8.46,8.46,0,0,1-2.568.367,6.968,6.968,0,0,1-4.35-1.52c-3.773-2.777-2.987-11.215,1.887-12.525a7.7,7.7,0,0,1,2.672-.419c0.682,0.052,1.311.1,1.939,0.209a4.362,4.362,0,0,1,1.939,1.049,7.3,7.3,0,0,1,3.04,5.712C165.845,120.253,165.53,121.2,163.067,123.5Zm18.606-27.146c-1.1-.052-2.2,0-3.3,0a0.637,0.637,0,0,0-.314,0,2.09,2.09,0,0,0-1.1,1.677,1.409,1.409,0,0,1,0,.472c0.053,0.943.053,1.887,0.157,2.83a6.3,6.3,0,0,0,.42,1.415,0.445,0.445,0,0,0,.576.262l1.153-.157a3.883,3.883,0,0,1-.891,3.2c-0.209.314-.471,0.576-0.629,0.838a0.568,0.568,0,0,0-.1.472,2.637,2.637,0,0,0,.577.891,14.523,14.523,0,0,0,1.467,1,1.025,1.025,0,0,0,1.258-.158,17.49,17.49,0,0,0,1.887-2.043,6.015,6.015,0,0,0,1.205-2.621c0-.314.053-0.576,0.053-0.891,0.1-1.31.262-2.62,0.314-3.983a13.4,13.4,0,0,0-.157-2.044,1.281,1.281,0,0,0-1.1-1.048A13.8,13.8,0,0,0,181.673,96.356Zm20.858,17.766c-0.629-.263-1.362-0.367-2.044-0.577l-1.257-.367-1.049-.419a5.335,5.335,0,0,1-2.253-1.258,1.03,1.03,0,0,1,.1-1.677,2.477,2.477,0,0,1,1.048-.524,6.424,6.424,0,0,1,1.415-.105,2.93,2.93,0,0,1,1.153.157,14.561,14.561,0,0,1,2.044.944,10.117,10.117,0,0,1,1.519,1.1,0.9,0.9,0,0,0,.891.105,3.471,3.471,0,0,0,1.782-1.31,10.885,10.885,0,0,1,1.1-1.1,1.111,1.111,0,0,1,.524-0.471,1.254,1.254,0,0,0,.734-0.891,1.69,1.69,0,0,0-.682-2.2,22.5,22.5,0,0,0-2.463-1.363,6.975,6.975,0,0,0-1.677-.786,8.776,8.776,0,0,0-2.62-.681c-3.512.052-3.407-.524-7.285,0.524-0.472.157-.943,0.21-1.415,0.367a5.436,5.436,0,0,0-1.939,1.205,6.485,6.485,0,0,0-1.991,2.62,10.5,10.5,0,0,0-.577,2.2,8.174,8.174,0,0,0,.419,4.035,8.354,8.354,0,0,0,1.677,2.882,6.2,6.2,0,0,0,1.415,1.206,16.254,16.254,0,0,0,1.992.838,13.559,13.559,0,0,0,3.721,1.258,2.67,2.67,0,0,1,.891.367l1.572,0.786a6.312,6.312,0,0,1,1.258.786,1.443,1.443,0,0,1,.786,1.31,3.855,3.855,0,0,1-.629,1.677,1.993,1.993,0,0,1-1.048.524,1.876,1.876,0,0,0-.524.1c-1.992.524-3.669-.262-5.241-1.31a20.521,20.521,0,0,1-1.677-1.31,1.266,1.266,0,0,0-1.834-.158l-2.306,1.625a3.353,3.353,0,0,0-1.31,1.52,1.793,1.793,0,0,0,.576,2.044c1.363,1.1,1.363,1.52,3.2,2.62,0.629,0.367,1.258.734,1.887,1.048a13.606,13.606,0,0,0,7.337,1.048,12.891,12.891,0,0,0,6.079-2.306,8.274,8.274,0,0,0,2.62-2.777,16.916,16.916,0,0,0,.786-2.306,5.815,5.815,0,0,0,.21-2.673C208.925,118.419,206.147,115.746,202.531,114.122Z"/>
  <path id="villA" class="cls-4" d="M50.757,141.637a0.471,0.471,0,0,1,.052.262l0.943,2.463c0.419,1.153.839,2.306,1.205,3.459,0.367,1,.629,1.991,1,2.987,0.262,0.733.629,1.415,0.891,2.148,0.314,0.734.524,1.468,0.839,2.2,0.681,1.834,1.363,3.72,2.1,5.5,0.524,1.363,1.153,2.725,1.729,4.036a4.986,4.986,0,0,0,.524.891,1.583,1.583,0,0,0,1.31.471c1,0.053,1.991.157,2.987,0.157,1.415,0,2.358-.209,2.83-1.729a11.05,11.05,0,0,1,.681-1.363l0.419-.838,2.2-6.341c0.157-.315.21-0.629,0.367-0.944l0.943-2.62,1-2.463c0.262-.629.472-1.31,0.681-1.939L75.6,141.9l0.314-.682,0.943-1.677a12.178,12.178,0,0,0,.576-1.467,0.878,0.878,0,0,0-.734-1.258,5.821,5.821,0,0,0-.943-0.1c-1-.052-1.991-0.105-2.987-0.105a12.725,12.725,0,0,0-1.991,0,1.581,1.581,0,0,0-1.205.472,10.987,10.987,0,0,0-1.258,2.149l-1.887,5.5c-0.314.943-.681,1.834-0.943,2.777a21.941,21.941,0,0,1-1,3.145c-0.262.681-.472,1.362-0.681,2.043-0.157.577-.367,1.1-0.524,1.625a1.2,1.2,0,0,1-.21-0.052l-0.21-.472c-0.629-1.729-1.258-3.511-1.834-5.241-1.153-3.459-2.358-6.917-3.354-10.429a1.6,1.6,0,0,0-1.625-1.362,6.608,6.608,0,0,1-1-.053,23.034,23.034,0,0,0-2.673-.157,10.883,10.883,0,0,0-2.254.21,0.952,0.952,0,0,0-.734,1.415A19.805,19.805,0,0,0,50.757,141.637ZM81.1,165.429a1,1,0,0,0,.629.734,12.951,12.951,0,0,0,1.415.1,7.436,7.436,0,0,1,1.52-.053,12.758,12.758,0,0,0,2.83-.052,1.213,1.213,0,0,0,1.258-1.363l0.1-3.773c0-.629.052-1.258,0.052-1.887l-0.157-3.563v-1.048a6.439,6.439,0,0,0,.1-1.415,22.863,22.863,0,0,0-.157-2.673,33.1,33.1,0,0,1,.052-4.559,17,17,0,0,0-.1-4.612,2.394,2.394,0,0,1-.1-1.048,5.642,5.642,0,0,0,0-2.1,1.027,1.027,0,0,0-.681-0.943,4.287,4.287,0,0,0-1.992-.262,7.8,7.8,0,0,1-1.1.052,9.6,9.6,0,0,1-1.415-.157l-1.572.157a1.07,1.07,0,0,0-.472.315,7.583,7.583,0,0,0-.419,2.83c0,1.52-.052,2.987-0.052,4.454,0,0.786-.052,1.52-0.052,2.306,0,1.048.052,2.1,0.052,3.145,0.052,1.205.052,2.358,0.052,3.563v6.184a16.946,16.946,0,0,0,.052,2.306A17.984,17.984,0,0,0,81.1,165.429Zm11.792-.891a0.437,0.437,0,0,1,0,.262,1.114,1.114,0,0,0,1.205,1.311c1.258,0,2.516.1,3.773,0a33.912,33.912,0,0,1,5.66-.053c1.415,0.053,2.882,0,4.35,0h1.467l2.044-.209a1.026,1.026,0,0,0,.681-0.42,2.62,2.62,0,0,0,.524-1.939c-0.052-.786,0-1.1,0-1.886a10.051,10.051,0,0,0-.105-1.258c-0.052-.734.105-1.048-0.524-1.153a19.533,19.533,0,0,0-3.039.052,28.688,28.688,0,0,0-2.988-.105,30.852,30.852,0,0,1-4.4.158,0.619,0.619,0,0,1-.681-0.629c-0.052-.524-0.157-1.048-0.157-1.52-0.053-1.31-.053-3.092-0.053-4.35,0-.629-0.1-1.258-0.1-1.886,0-1.415.052-2.778,0.1-4.193,0.053-1.834.158-3.668,0.158-5.5a29.63,29.63,0,0,1-.105-3.092,2.8,2.8,0,0,0-.157-0.629,0.9,0.9,0,0,0-1.049-.733c-0.838,0-1.729,0-2.568.052l-3.2.157a0.811,0.811,0,0,0-.839.734,10.1,10.1,0,0,0-.052,1.258v4.454c0,0.787.052,1.52,0.052,2.254,0,0.524-.052,1.1-0.052,1.625,0,0.733.052,1.467,0.052,2.253-0.1,2.044-.21,4.035-0.21,6.079-0.052,2.411,0,4.874.052,7.285A2.894,2.894,0,0,0,92.893,164.538Zm23.059,0a0.433,0.433,0,0,1,0,.262,1.114,1.114,0,0,0,1.206,1.311c1.258,0,2.515.1,3.773,0a33.909,33.909,0,0,1,5.66-.053c1.415,0.053,2.882,0,4.35,0h1.467l2.044-.209a1.024,1.024,0,0,0,.681-0.42,2.617,2.617,0,0,0,.525-1.939c-0.053-.786,0-1.1,0-1.886a10.244,10.244,0,0,0-.1-1.258c-0.053-.734.1-1.048-0.524-1.153a19.544,19.544,0,0,0-3.04.052A28.669,28.669,0,0,0,129,159.14a30.862,30.862,0,0,1-4.4.158,0.62,0.62,0,0,1-.682-0.629c-0.052-.524-0.157-1.048-0.157-1.52-0.052-1.31-.052-3.092-0.052-4.35,0-.629-0.105-1.258-0.105-1.886,0-1.415.052-2.778,0.105-4.193,0.052-1.834.157-3.668,0.157-5.5a30.189,30.189,0,0,1-.105-3.092,2.8,2.8,0,0,0-.157-0.629,0.9,0.9,0,0,0-1.048-.733c-0.839,0-1.73,0-2.568.052l-3.2.157a0.811,0.811,0,0,0-.839.734,10.18,10.18,0,0,0-.052,1.258v4.454c0,0.787.052,1.52,0.052,2.254,0,0.524-.052,1.1-0.052,1.625,0,0.733.052,1.467,0.052,2.253-0.1,2.044-.209,4.035-0.209,6.079-0.053,2.411,0,4.874.052,7.285A2.9,2.9,0,0,0,115.952,164.538Zm2.254,13.05a4.147,4.147,0,0,0,2.935.629c0.629-.053,1.31,0,1.939,0s1.258,0.1,1.939.1c0.524,0,1-.052,1.52-0.052,1.415,0,2.83.1,4.245,0,1.258-.052,2.515-0.367,3.773-0.472a4.979,4.979,0,0,0,2.1-.891l1.415-.733a17.332,17.332,0,0,0,2.253-1.572,26.319,26.319,0,0,0,2.306-2.516,18,18,0,0,0,2.568-4.193c0.419-.943.891-1.886,1.362-2.83l1.468-3.092a1.046,1.046,0,0,1,.786-0.681,12.181,12.181,0,0,1,2.411-.157,34.429,34.429,0,0,1,5.188.052,1.235,1.235,0,0,1,1.205.682c0.315,0.629.577,1.31,0.839,1.939l0.891,1.782a1.108,1.108,0,0,0,1.1.471h2.987c0.787,0,1.625-.052,2.411-0.1a0.95,0.95,0,0,0,1-1.257,6.33,6.33,0,0,0-.419-1.311l-0.524-1.048c-0.367-.733-0.682-1.467-1-2.2-0.105-.367-0.315-0.681-0.419-1.048-0.524-1.31-1-2.673-1.468-3.983-0.681-1.782-1.467-3.564-1.991-5.4a38.138,38.138,0,0,0-1.887-4.559,13.566,13.566,0,0,1-1-2.778,32.367,32.367,0,0,0-1.572-4.821,1.479,1.479,0,0,0-1.31-.944c-1.048-.052-2.149-0.157-3.2-0.262-3.564-.419-2.935.734-3.93,3.407-0.786,2.1-1.677,4.192-2.463,6.289l-1.258,3.092a16.941,16.941,0,0,1-.629,1.729,76.063,76.063,0,0,0-2.883,7.18,31.126,31.126,0,0,1-1.362,3.3c-0.367.786-.891,1.467-1.31,2.253l-0.891,1.572a7.349,7.349,0,0,1-.577,1.1,14.587,14.587,0,0,1-1.31,1.834,6.113,6.113,0,0,1-1.782,1.52,8.379,8.379,0,0,1-3.616.681c-1.415-.052-2.777,0-4.192,0-2.1,0-4.245.053-6.342,0a1.892,1.892,0,0,0-1.991,1.625c-0.052.629-.105,1.258-0.105,1.886,0,1,.053,1.73.105,2.673A1.488,1.488,0,0,0,118.206,177.588Zm34.432-30.816h0.157l1.1,3.092,1,3.092a6.223,6.223,0,0,1,.367,1.049c0.1,0.419.052,0.524-.367,0.524-0.576.052-1.153,0.052-1.729,0.052h-2.2c-0.786-.052-0.891-0.21-0.629-0.943l1.31-3.145,0.21-.576Z"/>
  <path id="Forma_2" data-name="Forma 2" class="cls-4" d="M103.4,194.167s-0.057-5.789-5.591-5.59-3.321,4.08-20.964,7.686-21.945,2.156-21.313,4.542,14.656,10.73,30.4,10.832c12.066,0.1,19.353-4.46,20.964-7.687s-1.574-5.76-2.1-7.687c0.052,0.23,2.229-1.132,5.591-4.192s6.564-6.185,4.891-8.037-3.229,4.732-7.337,7.687S103.4,194.167,103.4,194.167Z"/>
  <path id="Forma_2_copia" data-name="Forma 2 copia" class="cls-4" d="M116.323,194.167s0.057-5.789,5.59-5.59,3.322,4.08,20.964,7.686,21.945,2.156,21.313,4.542-14.656,10.73-30.4,10.832c-12.066.1-19.353-4.46-20.964-7.687s1.574-5.76,2.1-7.687c-0.052.23-2.229-1.132-5.591-4.192s-6.564-6.185-4.891-8.037,3.229,4.732,7.337,7.687S116.323,194.167,116.323,194.167Z"/>
</svg>
