<svg xmlns="http://www.w3.org/2000/svg" width="975" height="155" viewBox="0 0 975 155">
  <metadata><?xpacket begin="﻿" id="W5M0MpCehiHzreSzNTczkc9d"?>
<x:xmpmeta xmlns:x="adobe:ns:meta/" x:xmptk="Adobe XMP Core 5.6-c142 79.160924, 2017/07/13-01:06:39        ">
   <rdf:RDF xmlns:rdf="http://www.w3.org/1999/02/22-rdf-syntax-ns#">
      <rdf:Description rdf:about=""/>
   </rdf:RDF>
</x:xmpmeta>
                                                                                                    
                                                                                                    
                                                                                                    
                                                                                                    
                                                                                                    
                                                                                                    
                                                                                                    
                                                                                                    
                                                                                                    
                                                                                                    
                                                                                                    
                                                                                                    
                                                                                                    
                                                                                                    
                                                                                                    
                                                                                                    
                                                                                                    
                                                                                                    
                                                                                                    
                                                                                                    
                           
<?xpacket end="w"?></metadata>
<defs>
    <style>
      .cls-1 {
        fill-rule: evenodd;
      }
    </style>
  </defs>
  <path id="pAncHO_s_villA" data-name="pAncHO’s villA" class="cls-1" d="M65.956,76.052c4.05-9,4.95-9.3,3.45-19.649-0.75-5.4-5.4-13.949-10.65-16.8l-4.2-2.25c-4.95-2.55-10.35-3-15.749-2.7-1.8,0-3.45.3-5.25,0.3-8.25,0-16.349-.15-24.6-0.15-0.45,0-.75-0.15-1.2-0.15a5.376,5.376,0,0,0-1.65.6,3.682,3.682,0,0,0-1.65,3.6L4.758,53.4c0,0.3-.15,24.6-0.15,24.9,0.75,20.549-1.5,18-.15,39.148,0.15,1.95.75,2.4,2.7,2.4H23.808a2.628,2.628,0,0,0,2.55-1.35,4.432,4.432,0,0,0,.3-1.95v-14.1c-0.3,0,.6-10.35.6-11.55a2.268,2.268,0,0,1,1.65-1.8c1.95,0,3.9,0,5.85.15,1.2,0,2.55.15,3.75,0.15C47.957,89.551,61.906,85.651,65.956,76.052Zm-39.748-21.6c0.45-.75,3-0.3,4.05-0.45l7.65-.3c3.9-.15,6.3,2.25,7.8,5.4,2.25,4.65.45,7.65-3,10.95a8.674,8.674,0,0,1-2.1.75c-3.3.9-6.9,0.75-10.35,0.6-1.05,0-2.1-.15-3.3-0.15C25.758,65.552,25.908,60,26.208,54.453Zm-24.3,98.1a11.856,11.856,0,0,0,8.4,1.8c1.8-.15,3.75,0,5.55,0s3.6,0.3,5.55.3c1.5,0,2.85-.15,4.35-0.15,4.05,0,8.1.3,12.15,0,3.6-.15,7.2-1.05,10.8-1.35a14.293,14.293,0,0,0,6-2.55l4.05-2.1a49.433,49.433,0,0,0,6.45-4.5,75.1,75.1,0,0,0,6.6-7.2,51.519,51.519,0,0,0,7.35-12c1.2-2.7,2.55-5.4,3.9-8.1l4.2-8.85a2.991,2.991,0,0,1,2.25-1.949c2.25-.6,4.5-0.3,6.9-0.45a98.162,98.162,0,0,1,14.85.15,3.537,3.537,0,0,1,3.45,1.95c0.9,1.8,1.65,3.749,2.4,5.549l2.549,5.1a3.174,3.174,0,0,0,3.15,1.35h8.55c2.25,0,4.65-.15,6.9-0.3,2.55-.15,3.15-1.65,2.85-3.6a18.134,18.134,0,0,0-1.2-3.75l-1.5-3c-1.05-2.1-1.95-4.2-2.85-6.3-0.3-1.05-.9-1.95-1.2-3-1.5-3.75-2.85-7.65-4.2-11.4-1.95-5.1-4.2-10.2-5.7-15.449a108.786,108.786,0,0,0-5.4-13.049,38.74,38.74,0,0,1-2.849-7.95,92.6,92.6,0,0,0-4.5-13.8,4.231,4.231,0,0,0-3.75-2.7c-3-.15-6.15-0.45-9.15-0.75-10.2-1.2-8.4,2.1-11.25,9.75-2.25,6-4.8,12-7.05,18l-3.6,8.85a48.116,48.116,0,0,1-1.8,4.95A217.473,217.473,0,0,0,66.859,96.6a89.025,89.025,0,0,1-3.9,9.45c-1.05,2.249-2.55,4.2-3.75,6.449l-2.55,4.5a20.852,20.852,0,0,1-1.65,3.15,41.939,41.939,0,0,1-3.75,5.25,17.52,17.52,0,0,1-5.1,4.35,24.029,24.029,0,0,1-10.35,1.95c-4.05-.15-7.95,0-12,0-6,0-12.15.15-18.149,0a5.414,5.414,0,0,0-5.7,4.649c-0.15,1.8-.3,3.6-0.3,5.4,0,2.85.15,4.95,0.3,7.65A4.257,4.257,0,0,0,1.911,152.549Zm98.546-88.2h0.45l3.15,8.85,2.85,8.85a17.648,17.648,0,0,1,1.05,3c0.3,1.2.15,1.5-1.05,1.5-1.65.15-3.3,0.15-4.95,0.15h-6.3c-2.25-.15-2.55-0.6-1.8-2.7l3.75-9,0.6-1.65ZM224.5,41.1c-0.15-1.65,0-3.3-1.65-4.35a5.922,5.922,0,0,0-3.15-.6c-2.85-.15-5.55-0.3-8.25-0.3-1.5,0-3-.15-4.5,0-3.15.45-4.65,1.2-4.95,4.65-0.3,2.7.3,5.4,0.15,7.95-0.3,7.05-.45,16.2-0.3,23.4,0,2.55,0,5.1.15,7.8a3.4,3.4,0,0,1-.6.15,15.347,15.347,0,0,1-2.1-3.3,13.717,13.717,0,0,0-1.35-2.55,100.576,100.576,0,0,1-6.75-11.55c-1.5-2.7-3-5.55-4.649-8.1-2.7-4.35-5.4-8.55-8.25-12.75-1.2-1.65-2.7-2.1-4.05-3.6a6.763,6.763,0,0,0-2.1-1.5c-4.65,0-16.649-.75-20.849.3-1.65.9-1.65,4.35-1.5,6.45-0.6,13.65-.6,30.449-0.3,45.748V98.1a24.305,24.305,0,0,0,.15,3.3c0.15,1.2.15,11.7,0,13.5,0,6.6,7.5,4.95,12.15,4.95,2.849,0,5.1.3,7.8-.3a2.785,2.785,0,0,0,2.4-3.3c0-1.35-.15-3.3-0.15-4.8v-7.5c-0.15-3.45,0-6.9,0-10.2-0.15-2.55-.15-5.1-0.15-7.5,0-2.7.3-5.25,0.3-7.8a60.076,60.076,0,0,0,0-7.35,3.728,3.728,0,0,1,.15-1.2l4.2,6.75c3.15,5.25,6.15,10.65,9.15,16.049,4.049,6.9,7.5,13.95,11.4,20.7,0.9,1.8,1.8,3.6,3.6,4.65a12.986,12.986,0,0,0,8.85,1.65c3-.45,6.149.3,9.3,0.15a28.9,28.9,0,0,0,3.6-.15c1.35-.15,1.65-0.45,1.8-1.8,0.15-1.8.3-3.75,0.3-5.55,0-2.1-.15-5.249-0.15-7.5,0-2.85.3-5.7,0.3-8.55-0.15-6.6,0-13.35,0-19.949C224.5,65.1,225.4,52.2,224.5,41.1Zm77.7,70.8a3.011,3.011,0,0,0,.15-2.55,19.114,19.114,0,0,0-3-5.4c-1.95-2.25-3.75-4.8-5.85-7.05-1.5-1.65-2.55-1.8-4.5-.45a15.907,15.907,0,0,1-6.3,2.25l-4.8.3a14.5,14.5,0,0,1-8.4-1.35,19.54,19.54,0,0,1-9.15-7.95,25.845,25.845,0,0,1-2.85-6.6,23.515,23.515,0,0,1,3.45-19.2,19.529,19.529,0,0,1,2.25-2.7,18.027,18.027,0,0,1,5.7-4.35c3-1.2,6.15-.75,9.15-0.9a15.454,15.454,0,0,1,6.9,1.5c2.25,1.05,4.35,1.95,6.45,3.15a3.605,3.605,0,0,0,4.2-.45A12.775,12.775,0,0,0,298,57.6c1.5-1.95,2.7-3.9,4.2-5.7,2.7-3.45,2.249-7.95-1.5-10.2a31.314,31.314,0,0,0-7.2-3.3c-3.6-1.05-7.35-1.65-11.1-2.55a17.039,17.039,0,0,0-6.749,0c-2.1.45-4.35,0.6-6.45,0.9a29.963,29.963,0,0,0-6.3,1.65,41.6,41.6,0,0,0-7.2,3.9,90.113,90.113,0,0,0-9.3,7.2,28.329,28.329,0,0,0-7.5,9.75,49.24,49.24,0,0,0-4.65,18.449c0,1.05-.45,2.1-0.3,3.15,0.3,2.25.75,4.35,1.2,6.6,0.9,4.65,3.45,8.55,5.55,12.6,2.25,4.5,6,7.8,9.75,11.1a32.472,32.472,0,0,0,14.7,7.35,98.755,98.755,0,0,0,15.3,2.4,14.368,14.368,0,0,0,3.3-.45c4.35-1.2,8.7-2.55,12.9-4.05C299.054,115.5,301,114.3,302.2,111.9Zm79.5,8.25c0.75-.15,1.8.3,2.25-0.3a0.808,0.808,0,0,1,.6-0.6c0.75,0,.75-0.45.9-1.05,0.6-1.65.3-4.35,0.3-6.15,0.15-4.2-.6-8.549-0.6-12.9,0-3.45,0-6.9-.15-10.35-0.45-10.35-1.8-32.7.45-42.748a7.958,7.958,0,0,1,1.2-2.55l1.35-2.55c1.8-3.75,3.9-7.35,7.2-10.05a14.938,14.938,0,0,1,2.25-2.1,16.89,16.89,0,0,1,3.15-2.25c3.3-1.2,6.149-2.55,9.449-3.6a5.374,5.374,0,0,0,3.75-5.7,28.212,28.212,0,0,1-.15-8.7,4.815,4.815,0,0,0-.15-2.1c-0.15-1.5,0-2.85-.15-4.35-0.3-1.35-.45-1.5-1.95-1.65-2.25-.3-4.35.3-6.6,0.6a29.931,29.931,0,0,0-5.25,1.35,121.23,121.23,0,0,0-11.85,5.55,47.635,47.635,0,0,0-11.1,8.55,61.487,61.487,0,0,0-12.9,20.849,31.177,31.177,0,0,0-1.65,11.1V53.7h0.15l-0.45,11.25a6.436,6.436,0,0,1-.9,3.6,1.575,1.575,0,0,1-1.35.75l-6.149.3c-1.35,0-2.55.15-3.9,0.15a40.827,40.827,0,0,1-10.5-.45c-1.95-.3-1.95-0.45-2.55-2.4a3.693,3.693,0,0,1,.15-1.8c0.15-1.95.3-4.05,0.3-6a29.22,29.22,0,0,0-.3-3.75c0-2.55.15-4.95,0.15-7.35a34.913,34.913,0,0,0-.9-7.95,3.972,3.972,0,0,0-2.25-2.85,11.826,11.826,0,0,0-5.549-1.05l-5.85.3c-2.25,0-3.75,0-5.85.15s-3,.75-3.3,2.85a67.8,67.8,0,0,0-.3,7.8c0,1.95.6,3.75,0.6,5.7-0.15,3.6,0,7.2-.45,10.8-0.3,3.15.15,6.45,0.15,9.6,0,6.9,0,13.8.15,20.549l0.45,17.7v4.8c0,1.95,1.2,3.75,3.3,3.45a16.228,16.228,0,0,1,2.7,0c3.15,0,6.3.15,9.45,0.15a32.609,32.609,0,0,0,3.749-.15,4.158,4.158,0,0,0,3.15-3.6c0-2.25,0-4.5-.15-6.75-0.15-3.449-.45-6.749-0.45-10.049a18.636,18.636,0,0,1,.9-7.05,1.936,1.936,0,0,1,1.95-1.35c1.8,0,3.6,0,5.4.15,3.6,0,7.35.45,10.95-.15l4.8-.3c2.4-.15,3.6,1.5,3.6,3.6a19.805,19.805,0,0,0,.3,4.2c0.3,1.95-.45,3.9.15,5.85a2.928,2.928,0,0,1-.15,1.05c-0.15,3.9.3,8.549,0.3,12.449a2.389,2.389,0,0,0,1.8,2.25C371.653,121.05,375.553,119.55,381.7,120.15ZM478.3,58.5c-4.8-10.2-12.749-17.4-23.1-21.9a35.079,35.079,0,0,0-8.85-2.4,36.693,36.693,0,0,0-14.549.75c-2.7.75-5.55,1.35-8.25,2.25-10.049,3.15-15,9.3-21.149,17.4a30,30,0,0,0-5.25,11.85,63.593,63.593,0,0,0-.9,18.449,23.524,23.524,0,0,0,.75,5.55,28.349,28.349,0,0,0,3.45,8.25c1.35,1.8,2.85,3.45,4.05,5.4a22.36,22.36,0,0,0,11.1,9.6c2.55,1.2,5.249,2.25,7.8,3.15,16.65,4.5,24.3,4.65,40.2-3.75a35.093,35.093,0,0,0,4.65-3.6c6.3-5.549,12.149-16.8,13.5-25.2A41.374,41.374,0,0,0,478.3,58.5ZM451.452,93.751c-1.5,1.5-3.45,1.95-5.4,2.55a24.2,24.2,0,0,1-7.349,1.05c-4.65.15-8.7-1.65-12.45-4.35-10.8-7.95-8.549-32.1,5.4-35.848a22.078,22.078,0,0,1,7.65-1.2c1.95,0.15,3.75.3,5.549,0.6,2.25,0.3,3.9,1.8,5.55,3,5.25,4.2,8.55,9.45,8.7,16.349C459.4,84.451,458.5,87.151,451.452,93.751Zm53.251-77.7c-3.15-.15-6.3,0-9.45,0a1.828,1.828,0,0,0-.9,0c-1.65,1.2-3.15,2.55-3.15,4.8a4.078,4.078,0,0,1,0,1.35c0.15,2.7.15,5.4,0.45,8.1a18.068,18.068,0,0,0,1.2,4.05,1.277,1.277,0,0,0,1.65.75l3.3-.45c0.75,3.6-.6,6.45-2.55,9.15-0.6.9-1.35,1.65-1.8,2.4a1.619,1.619,0,0,0-.3,1.35,7.485,7.485,0,0,0,1.65,2.55,41.238,41.238,0,0,0,4.2,2.85,2.933,2.933,0,0,0,3.6-.45,49.914,49.914,0,0,0,5.4-5.85,17.192,17.192,0,0,0,3.45-7.5c0-.9.15-1.65,0.15-2.55,0.3-3.75.75-7.5,0.9-11.4a38.415,38.415,0,0,0-.45-5.85,3.662,3.662,0,0,0-3.15-3A39.528,39.528,0,0,0,504.7,16.054ZM564.4,66.9c-1.8-.75-3.9-1.05-5.849-1.65l-3.6-1.05-3-1.2a15.267,15.267,0,0,1-6.45-3.6c-1.5-1.5-1.5-3.6.3-4.8a7.087,7.087,0,0,1,3-1.5,18.431,18.431,0,0,1,4.05-.3,8.375,8.375,0,0,1,3.3.45,41.338,41.338,0,0,1,5.85,2.7,29.155,29.155,0,0,1,4.349,3.15,2.582,2.582,0,0,0,2.55.3,9.943,9.943,0,0,0,5.1-3.75,31.193,31.193,0,0,1,3.15-3.15,3.189,3.189,0,0,1,1.5-1.35,3.58,3.58,0,0,0,2.1-2.55c0.9-2.7.45-4.65-1.95-6.3a64.628,64.628,0,0,0-7.05-3.9,19.974,19.974,0,0,0-4.8-2.25c-2.4-.75-4.8-1.95-7.5-1.95-10.05.15-9.75-1.5-20.849,1.5-1.35.45-2.7,0.6-4.05,1.05A15.591,15.591,0,0,0,529,40.2a18.569,18.569,0,0,0-5.7,7.5,29.957,29.957,0,0,0-1.65,6.3,23.355,23.355,0,0,0,1.2,11.55,23.875,23.875,0,0,0,4.8,8.25,17.665,17.665,0,0,0,4.05,3.45,46.14,46.14,0,0,0,5.7,2.4c3.449,1.5,6.9,3.15,10.649,3.6a7.641,7.641,0,0,1,2.55,1.05l4.5,2.25a18.049,18.049,0,0,1,3.6,2.25c1.35,0.9,2.4,2.1,2.25,3.75a11,11,0,0,1-1.8,4.8c-0.75,1.05-1.95,1.05-3,1.5a5.333,5.333,0,0,0-1.5.3c-5.7,1.5-10.5-.75-15-3.75a58.954,58.954,0,0,1-4.8-3.75c-1.8-1.65-3-1.8-5.25-.45l-6.6,4.65a9.6,9.6,0,0,0-3.75,4.35,5.132,5.132,0,0,0,1.65,5.85c3.9,3.149,3.9,4.349,9.15,7.5,1.8,1.05,3.6,2.1,5.4,3a38.952,38.952,0,0,0,21,3,36.924,36.924,0,0,0,17.4-6.6c3-2.25,5.85-4.65,7.5-7.949a48.824,48.824,0,0,0,2.25-6.6,16.628,16.628,0,0,0,.6-7.65C582.7,79.2,574.751,71.552,564.4,66.9Zm78-17.249a1.352,1.352,0,0,1,.15.75l2.7,7.05c1.2,3.3,2.4,6.6,3.45,9.9,1.05,2.85,1.8,5.7,2.85,8.55,0.75,2.1,1.8,4.05,2.55,6.15,0.9,2.1,1.5,4.2,2.4,6.3,1.95,5.25,3.9,10.65,6,15.75,1.5,3.9,3.3,7.8,4.949,11.549a14.244,14.244,0,0,0,1.5,2.55,4.531,4.531,0,0,0,3.75,1.35c2.85,0.15,5.7.45,8.55,0.45,4.05,0,6.75-.6,8.1-4.95a31.525,31.525,0,0,1,1.95-3.9l1.2-2.4L698.8,90.6c0.45-.9.6-1.8,1.05-2.7l2.7-7.5,2.85-7.05c0.75-1.8,1.35-3.75,1.95-5.55L713.5,50.4l0.9-1.95,2.7-4.8a34.931,34.931,0,0,0,1.65-4.2c0.6-1.95-.15-3.15-2.1-3.6a16.529,16.529,0,0,0-2.7-.3c-2.849-.15-5.7-0.3-8.549-0.3a36.166,36.166,0,0,0-5.7,0,4.519,4.519,0,0,0-3.45,1.35,31.451,31.451,0,0,0-3.6,6.15l-5.4,15.749c-0.9,2.7-1.95,5.25-2.7,7.95a62.72,62.72,0,0,1-2.85,9c-0.75,1.95-1.35,3.9-1.95,5.85-0.45,1.65-1.05,3.15-1.5,4.65a3.4,3.4,0,0,1-.6-0.15l-0.6-1.35c-1.8-4.95-3.6-10.05-5.25-15-3.3-9.9-6.75-19.8-9.6-29.849-0.6-2.55-1.95-3.6-4.65-3.9a19.126,19.126,0,0,1-2.85-.15,65.419,65.419,0,0,0-7.65-.45,31.3,31.3,0,0,0-6.45.6c-2.1.45-2.849,1.95-2.1,4.05C639.849,43.053,640.449,46.653,642.4,49.653Zm86.849,68.1a2.874,2.874,0,0,0,1.8,2.1,36.778,36.778,0,0,0,4.05.3c1.5,0,2.85-.45,4.35-0.15,2.7,0.45,5.4,0,8.1-.15,2.549-.3,3.449-1.35,3.6-3.9l0.3-10.8c0-1.8.15-3.6,0.15-5.4l-0.45-10.2v-3a18.43,18.43,0,0,0,.3-4.05,65.414,65.414,0,0,0-.45-7.65,94.735,94.735,0,0,1,.15-13.049c0.3-4.35.6-8.85-.3-13.2a6.85,6.85,0,0,1-.3-3c0.6-2.1.15-4.05,0-6a2.94,2.94,0,0,0-1.949-2.7,12.253,12.253,0,0,0-5.7-.75,22.153,22.153,0,0,1-3.15.15,27.708,27.708,0,0,1-4.05-.45l-4.5.45a3.051,3.051,0,0,0-1.35.9,21.707,21.707,0,0,0-1.2,8.1c0,4.35-.15,8.55-0.15,12.75,0,2.25-.15,4.35-0.15,6.6,0,3,.15,6,0.15,9,0.15,3.45.15,6.75,0.15,10.2v17.7a48.475,48.475,0,0,0,.15,6.6C729.1,111.3,728.348,114.6,729.248,117.75ZM763,115.2a1.251,1.251,0,0,1,0,.75c0,2.4,1.05,3.75,3.45,3.75,3.6,0,7.2.3,10.8,0a97.217,97.217,0,0,1,16.2-.15c4.05,0.15,8.25,0,12.45,0h4.2l5.849-.6a2.933,2.933,0,0,0,1.95-1.2c1.5-1.65,1.5-3.6,1.5-5.55-0.15-2.25,0-3.15,0-5.4a29.128,29.128,0,0,0-.3-3.6c-0.15-2.1.3-3-1.5-3.3-2.4-.45-6.449.15-8.7,0.15-2.85,0-5.7-.6-8.55-0.3a88.443,88.443,0,0,1-12.6.45,1.772,1.772,0,0,1-1.95-1.8c-0.15-1.5-.45-3-0.45-4.35-0.15-3.75-.15-8.85-0.15-12.449,0-1.8-.3-3.6-0.3-5.4,0-4.05.15-7.95,0.3-12,0.15-5.25.45-10.5,0.45-15.749a85.76,85.76,0,0,1-.3-8.85,7.911,7.911,0,0,0-.45-1.8c-0.6-1.65-1.2-2.1-3-2.1-2.4,0-4.95,0-7.35.15l-9.149.45a2.318,2.318,0,0,0-2.4,2.1,28.9,28.9,0,0,0-.15,3.6V54.753c0,2.25.15,4.35,0.15,6.45,0,1.5-.15,3.15-0.15,4.65,0,2.1.15,4.2,0.15,6.45-0.3,5.85-.6,11.55-0.6,17.4-0.15,6.9,0,13.95.15,20.849C762.548,112.05,762.1,113.7,763,115.2Zm66,0a1.251,1.251,0,0,1,0,.75c0,2.4,1.05,3.75,3.45,3.75,3.6,0,7.2.3,10.8,0a97.217,97.217,0,0,1,16.2-.15c4.05,0.15,8.25,0,12.45,0h4.2l5.85-.6a2.93,2.93,0,0,0,1.949-1.2c1.5-1.65,1.5-3.6,1.5-5.55-0.15-2.25,0-3.15,0-5.4a29.128,29.128,0,0,0-.3-3.6c-0.15-2.1.3-3-1.5-3.3-2.4-.45-6.449.15-8.7,0.15-2.85,0-5.7-.6-8.55-0.3a88.438,88.438,0,0,1-12.6.45,1.772,1.772,0,0,1-1.95-1.8c-0.15-1.5-.45-3-0.45-4.35-0.15-3.75-.15-8.85-0.15-12.449,0-1.8-.3-3.6-0.3-5.4,0-4.05.15-7.95,0.3-12,0.15-5.25.45-10.5,0.45-15.749a85.76,85.76,0,0,1-.3-8.85,7.911,7.911,0,0,0-.45-1.8c-0.6-1.65-1.2-2.1-3-2.1-2.4,0-4.95,0-7.35.15l-9.149.45a2.318,2.318,0,0,0-2.4,2.1,28.9,28.9,0,0,0-.15,3.6V54.753c0,2.25.15,4.35,0.15,6.45,0,1.5-.15,3.15-0.15,4.65,0,2.1.15,4.2,0.15,6.45-0.3,5.85-.6,11.55-0.6,17.4-0.15,6.9,0,13.95.15,20.849C828.546,112.05,828.1,113.7,829,115.2Zm6.45,37.349a11.857,11.857,0,0,0,8.4,1.8c1.8-.15,3.75,0,5.55,0s3.6,0.3,5.549.3c1.5,0,2.85-.15,4.35-0.15,4.05,0,8.1.3,12.15,0,3.6-.15,7.2-1.05,10.8-1.35a14.294,14.294,0,0,0,6-2.55l4.05-2.1a49.436,49.436,0,0,0,6.45-4.5,75.224,75.224,0,0,0,6.6-7.2,51.517,51.517,0,0,0,7.35-12c1.2-2.7,2.55-5.4,3.9-8.1l4.2-8.85a2.991,2.991,0,0,1,2.25-1.949c2.25-.6,4.5-0.3,6.9-0.45a98.166,98.166,0,0,1,14.85.15,3.537,3.537,0,0,1,3.45,1.95c0.9,1.8,1.65,3.749,2.4,5.549l2.55,5.1a3.174,3.174,0,0,0,3.15,1.35h8.55c2.25,0,4.65-.15,6.9-0.3,2.55-.15,3.149-1.65,2.85-3.6a18.134,18.134,0,0,0-1.2-3.75l-1.5-3c-1.05-2.1-1.95-4.2-2.85-6.3-0.3-1.05-.9-1.95-1.2-3-1.5-3.75-2.85-7.65-4.2-11.4-1.95-5.1-4.2-10.2-5.7-15.449a108.786,108.786,0,0,0-5.4-13.049,38.681,38.681,0,0,1-2.849-7.95,92.6,92.6,0,0,0-4.5-13.8,4.231,4.231,0,0,0-3.75-2.7c-3-.15-6.15-0.45-9.15-0.75-10.2-1.2-8.4,2.1-11.249,9.75-2.25,6-4.8,12-7.05,18l-3.6,8.85a48.139,48.139,0,0,1-1.8,4.95A217.227,217.227,0,0,0,900.394,96.6a89,89,0,0,1-3.9,9.45c-1.05,2.249-2.55,4.2-3.75,6.449l-2.55,4.5a20.852,20.852,0,0,1-1.65,3.15,41.94,41.94,0,0,1-3.75,5.25,17.519,17.519,0,0,1-5.1,4.35,24.026,24.026,0,0,1-10.349,1.95c-4.05-.15-7.95,0-12,0-6,0-12.149.15-18.149,0a5.415,5.415,0,0,0-5.7,4.649c-0.15,1.8-.3,3.6-0.3,5.4,0,2.85.15,4.95,0.3,7.65A4.257,4.257,0,0,0,835.446,152.549Zm98.546-88.2h0.45l3.15,8.85,2.85,8.85a17.648,17.648,0,0,1,1.05,3c0.3,1.2.15,1.5-1.05,1.5-1.65.15-3.3,0.15-4.95,0.15h-6.3c-2.25-.15-2.55-0.6-1.8-2.7l3.75-9,0.6-1.65Z"/>
</svg>
